<?xml version="1.0" encoding="UTF-8"?>
<svg width="164px" height="64px" viewBox="0 0 164 64" version="1.1" xmlns="http://www.w3.org/2000/svg" xmlns:xlink="http://www.w3.org/1999/xlink">
    <title>AB893AFC-AF1D-4008-82AB-12086E3CA769</title>
    <g stroke="none" stroke-width="1" fill="none" fill-rule="evenodd">
        <g id="MegaMenu" transform="translate(-120.000000, -72.000000)">
            <g id="CMC_Sig_Ver_vFA_type" transform="translate(120.000000, 72.000000)">
                <path d="M17.106518,58.9654448 C17.106518,58.9654448 11.6073884,58.8626707 8.63425159,58.8626707 C5.66088233,58.8626707 0.143857712,58.9654448 0.143857712,58.9654448 C0.143857712,58.9654448 0,58.9902097 0,58.7719695 C0,58.5537293 0,57.9200588 0,57.7234878 C0,57.5272264 0.144090116,57.5300125 0.144090116,57.5300125 C0.144090116,57.5300125 5.64298726,57.6479551 8.61635652,57.6479551 C11.5897258,57.6479551 17.106518,57.5300125 17.106518,57.5300125 C17.106518,57.5300125 17.2631579,57.4950321 17.2631579,57.7234878 C17.2631579,57.9528722 17.2631579,58.5580631 17.2631579,58.7719695 C17.2631579,58.9858758 17.106518,58.9654448 17.106518,58.9654448" id="Fill-1" fill="#1A1919"></path>
                <path d="M163.843362,58.9654448 C163.843362,58.9654448 158.344539,58.8626707 155.37121,58.8626707 C152.398113,58.8626707 146.88093,58.9654448 146.88093,58.9654448 C146.88093,58.9654448 146.736842,58.9902097 146.736842,58.7719695 C146.736842,58.5537293 146.736842,57.9200588 146.736842,57.7234878 C146.736842,57.5272264 146.88093,57.5300125 146.88093,57.5300125 C146.88093,57.5300125 152.379986,57.6479551 155.353083,57.6479551 C158.326644,57.6479551 163.843362,57.5300125 163.843362,57.5300125 C163.843362,57.5300125 164,57.4950321 164,57.7234878 C164,57.9528722 164,58.5580631 164,58.7719695 C164,58.9858758 163.843362,58.9654448 163.843362,58.9654448" id="Fill-2" fill="#1A1919"></path>
                <path d="M19.1039197,16.0162937 C18.8003017,16.0162937 18.7464753,16.3122396 18.7068628,16.5302928 C18.6281038,17.0034797 18.2872034,18.1686064 17.7358908,18.7469719 C16.6041387,19.9076675 14.8388199,20.0678841 13.0998317,20.0678841 C7.03982015,20.0678841 3.41830673,15.0724852 3.41830673,10.2426667 C3.41830673,7.9205758 3.70421568,5.27222145 5.82488185,3.23674798 C7.17380356,1.92516424 9.1889141,1.28732969 11.9855557,1.28732969 C14.4452582,1.28732969 16.4836702,2.0751195 17.3374358,2.80740487 C17.993372,3.36244919 18.4337696,4.43802248 18.4337696,5.48397786 C18.4337696,5.79484932 18.4337696,6.18221429 18.7776992,6.18221429 C19.1032207,6.18221429 19.1297843,5.78342194 19.1491246,5.49237348 C19.1605423,5.31863062 19.1672997,4.95155509 19.1749892,4.526643 C19.1859409,3.93988186 19.1992227,3.21016182 19.2306797,2.69009928 C19.2637678,2.09704142 19.3064094,1.74465823 19.3350702,1.51167954 C19.3541774,1.35589399 19.3665272,1.25281433 19.3665272,1.16069563 C19.3665272,0.895533701 19.2220581,0.7642354 18.8944396,0.734617489 C18.0565189,0.682144811 17.2069476,0.525426413 16.2231598,0.343987554 L16.1383425,0.328362357 C14.5254152,0.0319500305 12.8300007,0 12.1756957,0 C8.52039512,0 5.78060907,0.963864788 3.79951867,2.9470988 C1.52832505,5.21974877 0.719298246,8.31820209 0.719298246,10.4600202 C0.719298246,13.8805391 1.8396326,16.6203126 4.04884433,18.6035466 C6.30069773,20.6294584 9.17656432,21.5730337 13.0998317,21.5730337 C14.7199824,21.5730337 16.8679113,21.4062872 18.041606,20.9365984 C18.566355,20.7031533 18.645813,20.6142996 18.8180108,20.0676509 C19.0934341,19.1308387 19.4210526,16.758374 19.4210526,16.5512818 C19.4210526,16.0550069 19.1784844,16.0162937 19.1039197,16.0162937" id="Fill-3" fill="#81112C"></path>
                <path d="M33.5403821,17.8676468 C33.2556813,17.8676468 33.2174925,18.177972 33.2040007,18.2909454 C33.1305959,18.7679182 32.8879714,19.3421606 32.6147044,19.6874092 C32.1020143,20.3225916 31.1841115,20.3701717 29.8424734,20.3701717 C27.9527005,20.3701717 27.4157708,20.1866485 27.086021,19.8484314 C26.6760061,19.4284142 26.6010006,17.6756857 26.6010006,14.3748467 L26.6010006,10.0502155 C26.6010006,6.26560655 26.6010006,5.5837816 26.6481077,4.80937471 C26.6965869,3.94168273 26.8884455,3.6458893 27.4688235,3.54299444 C27.7386604,3.49682067 28.0626933,3.47197589 28.2303123,3.47197589 C28.4125665,3.47197589 28.5445122,3.35712741 28.5445122,3.19868339 C28.5445122,2.87640449 28.1786317,2.87640449 28.0409691,2.87640449 C27.5337673,2.87640449 26.5248517,2.91273412 25.9218349,2.93453189 C25.6830978,2.94296974 25.5150215,2.94906374 25.4807202,2.94906374 C25.4516784,2.94906374 25.3377981,2.94484481 25.1669776,2.93804766 C24.6600044,2.91812496 23.6044391,2.87640449 22.802246,2.87640449 C22.6643548,2.87640449 22.2982456,2.87640449 22.2982456,3.19868339 C22.2982456,3.35712741 22.4306486,3.47197589 22.6124455,3.47197589 C22.8251136,3.47197589 23.2127183,3.49611751 23.3924571,3.5420569 C24.058817,3.68667223 24.2653108,3.97098081 24.3135613,4.81007786 C24.3606684,5.58354721 24.3606684,6.26560655 24.3606684,10.0502155 L24.3606684,14.3265635 C24.3606684,16.6036103 24.3606684,18.5705663 24.2431293,19.5809986 C24.1413688,20.3368891 24.0224576,20.7344054 23.6520036,20.8103461 C23.3933718,20.869411 23.1374841,20.9043343 22.967807,20.9043343 C22.7510228,20.9043343 22.6540644,21.0416837 22.6540644,21.1780956 C22.6540644,21.5001401 23.019945,21.5001401 23.1576075,21.5001401 C23.5214299,21.5001401 24.0480692,21.4752953 24.50885,21.4513881 C24.8385998,21.4513881 25.1377072,21.4394345 25.3163026,21.4324029 C25.3949669,21.4293559 25.4521357,21.4267777 25.4807202,21.4267777 C26.128786,21.4267777 26.8502567,21.4488098 27.8955316,21.5001401 C28.1146026,21.5050622 28.3448786,21.5118593 28.5893326,21.5186565 C29.4409195,21.5430325 30.500601,21.5730337 31.8337781,21.5730337 C33.0686249,21.5730337 33.2495071,21.4893584 33.4470826,20.8230028 C33.6409993,20.1029732 33.8070175,18.6272874 33.8070175,18.3596201 C33.8070175,18.1519553 33.8070175,17.8676468 33.5403821,17.8676468" id="Fill-4" fill="#81112C"></path>
                <path d="M44.9052549,13.0360408 L40.3406535,13.0358018 C40.3411217,13.0348456 40.34159,13.0338894 40.3418241,13.0329332 L42.4773252,6.34332718 C42.5019089,6.26826514 42.5227465,6.22069397 42.5384332,6.19105163 C42.5541199,6.22093302 42.5751916,6.26898229 42.6002435,6.34523959 L44.9026794,13.0238492 C44.903616,13.0281521 44.9045525,13.032216 44.9052549,13.0360408 Z M56.1718318,3.87321217 C56.1718318,3.783568 56.2069513,3.72906435 56.2750832,3.70085632 C56.5017211,3.6315315 57.1357456,3.55742566 57.8645927,3.55742566 C60.4138018,3.55742566 61.9358819,5.36154431 61.9358819,8.38338927 C61.9358819,10.0808911 61.4027676,11.4676266 60.5100293,12.0929842 C59.9453074,12.4938729 59.2422145,12.5400098 58.7624819,12.5400098 C57.733714,12.5400098 56.6199569,12.3705226 56.2797658,12.1625481 C56.2029711,12.115455 56.1718318,12.0614295 56.1718318,11.9765664 L56.1718318,3.87321217 Z M80.2886419,17.892842 C80.0299281,17.892842 79.9805266,18.1691851 79.9444706,18.3726176 C79.7803453,19.352488 79.5050083,19.8097928 78.9281116,20.058884 C78.3210121,20.3213621 77.2735138,20.3213621 76.6481522,20.3213621 C74.2658779,20.3213621 74.0268311,19.984061 73.9598698,18.4132563 C73.9425442,18.0420099 73.9502705,16.4418018 73.9561237,15.272842 C73.9579968,14.8141029 73.960104,14.4184733 73.960104,14.1822909 L73.960104,12.0011886 C73.960104,11.9615061 73.9633818,11.9581594 74.0027156,11.9581594 C74.4108045,11.9581594 76.8104044,12.007643 77.4601156,12.0810317 C78.310008,12.1701977 78.5195545,12.52232 78.6132065,12.8574697 C78.7047514,13.1608255 78.7047514,13.392227 78.7047514,13.6367762 C78.7047514,13.8512051 78.8215824,13.9898547 79.0020967,13.9898547 C79.2996761,13.9898547 79.2996761,13.5990062 79.2996761,13.3891193 C79.2996761,13.2289551 79.3465022,12.3219952 79.3961378,11.8147288 C79.4410907,11.3086576 79.5047741,10.9582087 79.5466834,10.7263291 C79.5736084,10.5797908 79.590934,10.4829751 79.590934,10.4155627 C79.590934,10.1186612 79.4167412,10.0868674 79.3418196,10.0868674 C79.19502,10.0868674 79.092471,10.2071101 78.9229607,10.4057616 L78.8829245,10.4523765 C78.7070927,10.6519842 78.4273072,10.7055317 77.826061,10.7564495 C77.4186745,10.7927853 75.5713876,10.8056941 73.9783661,10.8056941 C73.97462,10.8056941 73.9711081,10.805455 73.9687668,10.8056941 C73.9650207,10.7911119 73.960104,10.75884 73.960104,10.6880809 L73.960104,3.8485899 C73.960104,3.75105705 73.9771955,3.7278691 73.9783661,3.73121581 C74.2670486,3.73121581 76.8883697,3.75655523 77.2892005,3.80436545 C78.5476501,3.94755706 78.7611768,4.22366108 78.9086788,4.56789466 C79.0159104,4.83061182 79.0447084,5.22074322 79.0447084,5.40983264 C79.0447084,5.78370856 79.2196036,5.86211732 79.3664032,5.86211732 C79.5132028,5.86211732 79.6122399,5.73542023 79.6621096,5.48059176 C79.6941854,5.28217935 79.725793,4.76056985 79.7508449,4.34151327 C79.7641904,4.11632713 79.7758969,3.92413005 79.7840914,3.83807165 C79.8267031,3.4350315 79.8845332,3.17303149 79.9266767,2.98155156 C79.9571136,2.84385813 79.9788877,2.74489097 79.9788877,2.65907163 C79.9788877,2.35189097 79.8384096,2.30599315 79.754591,2.30599315 C79.655554,2.30599315 79.5761838,2.34710994 79.5064131,2.38344571 C79.4647379,2.40472126 79.4256382,2.4250406 79.3837289,2.43388549 C79.1872937,2.48408622 78.7871652,2.53117929 78.365731,2.55388915 C77.8164616,2.57827236 73.0172618,2.57827236 72.8194219,2.57851141 L71.8239005,2.52902783 C71.2872742,2.50416652 70.6408408,2.50416652 70.0707339,2.50416652 C69.9295534,2.50416652 69.5551793,2.50416652 69.5551793,2.83286178 C69.5551793,2.99446032 69.6902724,3.11159536 69.87664,3.11159536 C70.0941469,3.11159536 70.4914658,3.13621763 70.675258,3.18307164 C71.3575132,3.33056617 71.5686986,3.62053515 71.6181001,4.47633809 C71.6663309,5.26520672 71.6663309,5.96084542 71.6663309,9.82080353 L71.6663309,14.1822909 C71.6663309,16.5046723 71.6663309,18.5107891 71.5462221,19.5413384 C71.4420342,20.3122782 71.3205207,20.7177089 70.9409957,20.7951614 C70.6759604,20.8554023 70.4142029,20.8910209 70.2404783,20.8910209 C70.2191724,20.8910209 70.1997396,20.8936505 70.1807751,20.8958019 C70.1613423,20.8931724 70.1414412,20.8910209 70.1210719,20.8910209 C69.9784866,20.8910209 69.6453194,20.8910209 69.194853,20.8181103 C68.552634,20.713645 67.5547713,20.418895 66.3063894,19.0739935 C65.0750989,17.7300482 63.64152,15.8518237 61.9817714,13.6764587 L61.3376794,12.8333255 C63.3102259,10.9491247 64.229655,9.12301337 64.229655,7.09490384 C64.229655,5.35365563 63.1435252,4.09098772 62.5015403,3.6188618 C61.1599746,2.63660083 59.466043,2.50416652 57.9858722,2.50416652 C57.5122269,2.50416652 56.6019288,2.5335698 55.9374675,2.55532345 C55.5364025,2.56847126 55.2196244,2.57827236 55.1219922,2.57827236 C55.0920235,2.57827236 54.9756608,2.57396944 54.8009997,2.56703696 C54.2814649,2.54671761 53.2009543,2.50416652 52.3793916,2.50416652 C52.2384453,2.50416652 51.8636029,2.50416652 51.8636029,2.83286178 C51.8636029,2.99446032 51.9989301,3.11159536 52.1852977,3.11159536 C52.4030388,3.11159536 52.7998894,3.13621763 52.9836815,3.18307164 C53.6659368,3.33056617 53.8775904,3.62053515 53.9267578,4.47633809 C53.9749886,5.26520672 53.9749886,5.96084542 53.9749886,9.82080353 L53.9749886,14.1822909 C53.9749886,16.5046723 53.9749886,18.5107891 53.8551139,19.5410994 C53.7506919,20.3122782 53.6287101,20.7177089 53.2498875,20.7951614 C52.9848522,20.8554023 52.7228605,20.8910209 52.5493701,20.8910209 C52.4856867,20.8910209 52.4334757,20.9036906 52.3894592,20.9232928 C52.3346728,20.9027344 52.2677115,20.8910209 52.185766,20.8910209 C51.95187,20.8910209 51.6002065,20.8663987 51.2499478,20.7471122 C50.7219843,20.5934023 50.0711025,20.1556997 49.2460278,18.0738037 C48.1896326,15.3856741 45.9520508,9.41871958 44.6151676,5.85375053 C44.081585,4.43020123 43.6959726,3.40204245 43.5917847,3.13287091 C43.3052094,2.37723038 43.1848665,2.15730337 42.9387957,2.15730337 C42.694598,2.15730337 42.5801084,2.3815333 42.2851044,3.20912821 L36.7757878,18.5985209 C36.3103371,19.9188001 35.844184,20.709103 34.8411704,20.8424935 C34.6447352,20.8675939 34.3103974,20.8910209 34.153296,20.8910209 C33.946325,20.8910209 33.8070175,21.0031359 33.8070175,21.1702326 C33.8070175,21.4986888 34.2045705,21.4986888 34.3958549,21.4986888 C35.1670796,21.4986888 36.020484,21.4649826 36.5852059,21.4427509 C36.8532849,21.4322326 37.0520614,21.4238658 37.1384554,21.4238658 C37.2428775,21.4238658 37.4795831,21.4362965 37.7535153,21.4506395 C38.1665209,21.4721541 38.6809049,21.4986888 39.0316318,21.4986888 C39.4376135,21.4986888 39.5228369,21.3201176 39.5228369,21.1702326 C39.5228369,21.0660063 39.4748402,20.8910209 39.1526771,20.8910209 L38.9101183,20.8910209 C38.6027054,20.8910209 38.1152464,20.7313348 38.1152464,20.3029552 C38.1152464,19.8685994 38.233248,19.2943986 38.4481795,18.6843402 L39.9021277,14.304685 C39.9442711,14.197112 39.9868828,14.1880281 40.026685,14.1880281 L45.2447436,14.1880281 C45.3021055,14.1880281 45.313812,14.1932872 45.3437806,14.2528109 L47.6007953,20.348614 C47.661435,20.5135592 47.6693954,20.6589023 47.6232718,20.7571523 C47.5928348,20.8224133 47.5506914,20.8424935 47.5436675,20.8456012 C47.3116445,20.9044078 47.2769933,21.0585957 47.2769933,21.1451322 C47.2769933,21.4054589 47.5703584,21.4205191 48.0147374,21.4429899 L48.1289929,21.4489662 C49.2102059,21.480999 50.5646488,21.4986888 51.9432071,21.4986888 C52.1429202,21.4986888 52.2787156,21.4702417 52.3718994,21.4274516 C52.493413,21.4967764 52.6594113,21.4986888 52.743464,21.4986888 C53.36227,21.4986888 54.5350279,21.4460976 54.9206402,21.4288859 C54.9819823,21.4260173 55.0196773,21.4243439 55.0248282,21.4238658 C55.0524555,21.4238658 55.1545363,21.4281687 55.3114035,21.434145 C55.8536489,21.4551815 56.9821562,21.4986888 58.0099876,21.4986888 C58.4590492,21.4986888 58.5260104,21.2928658 58.5260104,21.1702326 C58.5260104,21.0311049 58.4265051,20.8910209 58.2043156,20.8910209 C57.9966421,20.8910209 57.474766,20.8436888 57.1287217,20.793249 C56.5204516,20.7102983 56.3696717,20.3082143 56.2921747,19.5437289 C56.1718318,18.5107891 56.1718318,16.5046723 56.1718318,14.1822909 L56.1718318,13.5870536 C56.1718318,13.5382872 56.1821335,13.5246613 56.1821335,13.5246613 C56.1840065,13.523227 56.1936059,13.5191631 56.2121021,13.5191631 L59.1993687,13.5686467 C59.3002788,13.5686467 59.3421881,13.5947032 59.4138319,13.6666576 C59.6179934,13.9377416 59.9439026,14.3964806 60.3208521,14.9281303 C60.8328948,15.6488693 61.4699629,16.5465062 62.0588002,17.3337015 L62.3669155,17.7484552 C63.5841581,19.3888238 64.3879269,20.4722034 65.3764244,21.0122198 C66.0462708,21.3803585 66.6917676,21.4986888 68.0335675,21.4986888 L69.7567654,21.4986888 C69.8876441,21.4986888 70.0379557,21.4967764 70.1676638,21.4695246 C70.2676374,21.4967764 70.3732301,21.4986888 70.4348063,21.4986888 C70.6071261,21.4986888 70.8206528,21.4876925 71.0470566,21.476218 C71.3118578,21.4628312 71.5857901,21.4489662 71.8484841,21.4487271 C72.3183834,21.4260173 72.7058688,21.4238658 72.8133345,21.4238658 C73.1537597,21.4238658 73.6828939,21.4449023 74.7029989,21.4986888 L75.2372839,21.5132709 C76.1101211,21.5386103 77.3053555,21.5730337 78.8080028,21.5730337 C79.7595077,21.5730337 80.0463172,21.5730337 80.2427524,20.8283895 C80.3623929,20.3168202 80.5614035,18.6217088 80.5614035,18.3943712 C80.5614035,18.2189077 80.5614035,17.892842 80.2886419,17.892842 L80.2886419,17.892842 Z" id="Fill-5" fill="#81112C"></path>
                <path d="M106.135029,20.9856228 C105.90179,20.9856228 105.282236,20.9856228 104.600049,20.7762623 C103.616849,20.4601419 103.467745,19.1346544 103.378469,18.3431979 L101.755616,3.63574058 C101.714484,3.25145089 101.648579,2.87640449 101.338218,2.87640449 C101.065016,2.87640449 100.935776,3.16294641 100.859588,3.33209858 L93.8502848,18.1366104 L86.5551592,3.30945253 C86.4355018,3.04971614 86.3083659,2.87640449 86.0758286,2.87640449 C85.8608193,2.87640449 85.7138184,3.08045007 85.6827355,3.41967873 L83.9383557,19.0385242 L83.9294748,19.1235625 C83.8390307,19.9822639 83.7539618,20.7933624 83.0713073,20.9162981 C82.7198138,20.9856228 82.5571546,20.9856228 82.3692551,20.9856228 C82.1857961,20.9856228 82,21.0699678 82,21.2312631 C82,21.4581859 82.181122,21.5730337 82.5386918,21.5730337 C82.956324,21.5730337 83.5779814,21.5439174 84.0316043,21.5226578 C84.2917188,21.5106415 84.4971462,21.500705 84.5740354,21.500705 C84.6347989,21.500705 84.7918491,21.5083307 85.0059236,21.5180361 C85.486189,21.5397579 86.2118454,21.5730337 86.8267253,21.5730337 C86.9954608,21.5730337 87.3901899,21.5730337 87.3901899,21.2312631 C87.3901899,21.0937692 87.249499,20.9856228 87.0693119,20.9856228 C86.9244143,20.9856228 86.5733882,20.9611281 86.1735176,20.8684641 C85.8678305,20.8081516 85.6462774,20.5474909 85.6462774,20.2489327 C85.6462774,19.8389929 85.6462774,19.4149571 85.669648,19.0382931 L86.6119497,8.23566273 C87.2060297,9.55629747 89.4811554,14.3778274 89.6928928,14.7963173 L89.8099794,15.0285549 C91.2442318,17.8747943 92.1589561,19.6672989 92.5282113,20.3559238 L92.5765883,20.4467391 C93.0414291,21.3176879 93.1517382,21.5249686 93.3924552,21.5249686 C93.6640213,21.5249686 93.7549328,21.335019 94.1375092,20.5352436 L100.104018,8.01636573 L101.236088,20.047198 C101.280492,20.4458148 101.251747,20.7080931 101.215756,20.778111 C101.051928,20.817626 100.969196,20.9137562 100.969196,21.0637286 C100.969196,21.3387164 101.313211,21.3900166 101.763796,21.4288384 C102.69114,21.5030158 105.314488,21.5730337 105.820227,21.5730337 C106.394442,21.5730337 106.45614,21.3340947 106.45614,21.2312631 C106.45614,21.1194194 106.400518,20.9856228 106.135029,20.9856228" id="Fill-6" fill="#81112C"></path>
                <path d="M124.002507,12.1342716 C124.002507,19.9895339 118.510553,20.3874716 117.409484,20.3874716 C112.89691,20.3874716 109.744991,16.5915041 109.744991,11.1566367 C109.744991,6.27647743 112.420492,3.24503124 116.727512,3.24503124 C120.23134,3.24503124 124.002507,6.02682337 124.002507,12.1342716 Z M116.897828,2.15730337 C113.039741,2.15730337 110.735648,3.97324784 109.481881,5.4968684 C108.037829,7.25175489 107.175439,9.62335055 107.175439,11.8407689 C107.175439,16.5280887 110.17231,21.5730337 116.752178,21.5730337 C119.565342,21.5730337 122.10553,20.512888 123.904546,18.5877936 C125.640368,16.7301222 126.596491,14.1949194 126.596491,11.4496678 C126.596491,5.89174143 122.698702,2.15730337 116.897828,2.15730337 L116.897828,2.15730337 Z" id="Fill-7" fill="#81112C"></path>
                <path d="M146.881281,2.50239897 C146.209578,2.50239897 145.61826,2.53498209 145.226831,2.55662489 C145.026465,2.5675652 144.868319,2.57612719 144.779109,2.57612719 C144.690137,2.57612719 144.502175,2.5682787 144.250524,2.55733839 C143.734582,2.53569559 142.955302,2.50239897 142.207508,2.50239897 C141.973986,2.50239897 141.583034,2.50239897 141.583034,2.80444682 C141.583034,3.05417141 141.761455,3.10673249 141.911014,3.10673249 C142.089674,3.10673249 142.649983,3.12837529 143.090072,3.22564896 C143.761536,3.39879135 143.931847,3.8345013 143.956893,5.44534384 L144.221901,17.6354715 C143.798747,17.186205 143.113209,16.4363178 142.283838,15.5282716 C141.182064,14.3229342 139.81075,12.8222083 138.519583,11.4434907 C134.677567,7.33944542 131.014687,3.39189419 130.653551,2.98377286 C130.590341,2.92122279 130.515681,2.83845693 130.436488,2.7509344 C130.102784,2.38157984 129.886436,2.15730337 129.69585,2.15730337 C129.351889,2.15730337 129.294164,2.57755419 129.294164,3.51937265 L129.269357,17.6464118 C129.269357,19.8910791 129.136257,20.5089691 128.616498,20.6540472 C128.30283,20.7586937 127.896374,20.7955578 127.643531,20.7955578 C127.401661,20.7955578 127.315789,20.9451547 127.315789,21.0733467 C127.315789,21.4001292 127.657843,21.4001292 127.841273,21.4001292 C128.613636,21.4001292 129.358568,21.3642164 129.803666,21.3425736 C130.003316,21.3332981 130.147866,21.3256874 130.215609,21.3256874 C130.277627,21.3256874 130.400709,21.3321089 130.576744,21.3404331 C131.043311,21.3627894 131.824261,21.4001292 132.836586,21.4001292 C133.008566,21.4001292 133.411683,21.4001292 133.411683,21.0733467 C133.411683,20.9451547 133.325335,20.7955578 133.083704,20.7955578 C133.016676,20.7955578 132.412716,20.7915146 131.884132,20.652858 C131.346961,20.4944613 131.06454,20.0273574 131.013256,17.9139738 L130.701258,6.45922569 C131.742683,7.62246662 134.304743,10.4624298 136.919756,13.2724261 C139.561485,16.1045408 143.115833,19.7203151 143.376786,19.9569588 C144.752632,21.3285414 145.017878,21.5730337 145.273822,21.5730337 C145.600132,21.5730337 145.62637,21.2885855 145.62637,19.6929643 L145.675508,5.24532633 C145.675508,3.7536381 145.776645,3.32815496 146.492237,3.17689321 C146.773227,3.10673249 146.935666,3.10673249 147.053977,3.10673249 C147.331627,3.10673249 147.45614,2.95499507 147.45614,2.80444682 C147.45614,2.50239897 147.081885,2.50239897 146.881281,2.50239897" id="Fill-8" fill="#81112C"></path>
                <path d="M163.747756,3.04417017 C163.689255,3.04417017 163.617726,3.05919051 163.508776,3.08229873 C163.395326,3.10656236 163.239716,3.13914495 163.0365,3.16618157 C162.609936,3.24405626 162.031552,3.28334024 161.31698,3.28334024 L152.109967,3.28334024 C151.809643,3.28334024 150.868406,3.23365757 150.180125,3.16433291 C149.776772,3.13498547 149.542528,3.03354039 149.371524,2.95959408 C149.264231,2.91314656 149.17944,2.87640449 149.090621,2.87640449 C148.91938,2.87640449 148.834351,3.08715146 148.733691,3.38524749 L148.719717,3.42707336 C148.690584,3.5407658 148.175439,5.68266666 148.175439,5.94864226 C148.175439,6.27354382 148.385523,6.28971958 148.427445,6.28971958 C148.641083,6.28971958 148.732743,6.12796204 148.791955,5.97429238 C148.864905,5.80698888 148.934064,5.64939082 149.198151,5.25192945 C149.558397,4.72459988 150.09628,4.56492208 151.596242,4.5413517 L155.098995,4.49536634 L155.098995,14.5005321 C155.098995,16.7454956 155.098995,18.6847374 154.977965,19.6809327 C154.872568,20.4261728 154.749407,20.8180882 154.365475,20.8929588 C154.097836,20.9511915 153.832803,20.9856228 153.656824,20.9856228 C153.432055,20.9856228 153.331868,21.1210369 153.331868,21.2555268 C153.331868,21.5730337 153.710589,21.5730337 153.853409,21.5730337 C154.379212,21.5730337 155.302448,21.537216 155.854068,21.5154942 C156.071495,21.5069442 156.224499,21.500705 156.259553,21.500705 C156.287738,21.500705 156.391004,21.5048645 156.549692,21.5106415 C157.098234,21.5309767 158.239844,21.5730337 159.279609,21.5730337 C159.733647,21.5730337 159.801386,21.3740719 159.801386,21.2555268 C159.801386,21.1210369 159.700725,20.9856228 159.475956,20.9856228 C159.266108,20.9856228 158.738173,20.9398685 158.387874,20.8911102 C157.772305,20.8109246 157.620011,20.4222444 157.541377,19.6832435 C157.419637,18.6847374 157.419637,16.7454956 157.419637,14.5005321 L157.419637,4.49582851 L160.381665,4.5413517 C162.828547,4.59126545 163.217926,5.17821423 163.275717,5.74482777 L163.300349,6.00548848 C163.317403,6.23911258 163.338245,6.52935181 163.625542,6.52935181 C163.695886,6.52935181 163.92634,6.49792463 163.92634,6.09237538 C163.92634,5.99532086 163.936525,5.70207756 163.949788,5.33072847 C163.971104,4.72991477 164,3.90749324 164,3.45734513 C164,3.31291876 164,3.04417017 163.747756,3.04417017" id="Fill-9" fill="#81112C"></path>
                <path d="M40.6601505,45.3902429 C40.4131806,45.3902429 39.7573514,45.3902429 39.0346394,45.1646845 C37.994057,44.8243266 37.835949,43.3972953 37.7416514,42.5447368 L36.0232607,26.7057353 C35.9800115,26.2919343 35.9102927,25.8876404 35.5813146,25.8876404 C35.2913317,25.8876404 35.1549665,26.1963869 35.0743763,26.3786875 L27.6529893,42.3222682 L19.9286211,26.3544442 C19.802182,26.0742193 19.6674711,25.8876404 19.4212102,25.8876404 C19.1936197,25.8876404 19.0381114,26.1072569 19.0052609,26.4728088 L17.1585403,43.2934291 L17.1483779,43.3885011 C17.052426,44.3114129 16.9619097,45.1836989 16.2396704,45.3160867 C15.8679157,45.3902429 15.6958639,45.3902429 15.4966337,45.3902429 C15.3021301,45.3902429 15.1052632,45.4812743 15.1052632,45.6552562 C15.1052632,45.8991159 15.2974034,46.0224719 15.6760118,46.0224719 C16.1184307,46.0224719 16.7766232,45.9913358 17.2573283,45.9687562 C17.5324221,45.9556838 17.7496138,45.9454636 17.8306766,45.9454636 C17.8951961,45.9454636 18.0613395,45.9528316 18.2884573,45.9635272 C18.7968135,45.9872953 19.5653744,46.0224719 20.216477,46.0224719 C20.3946734,46.0224719 20.8127498,46.0224719 20.8127498,45.6552562 C20.8127498,45.504567 20.6666948,45.3902429 20.4729003,45.3902429 C20.3197553,45.3902429 19.9482369,45.3638604 19.5242522,45.2640347 C19.2009461,45.1989104 18.9657929,44.9186856 18.9657929,44.5973421 C18.9657929,44.1554948 18.9657929,43.6986736 18.9910808,43.2934291 L19.9884138,31.6589885 C20.6156465,33.0765126 23.0250803,38.2695849 23.2507801,38.7245046 L23.3342063,38.8930198 C25.2452099,42.7512808 25.9766663,44.1875816 26.2534144,44.7121416 L26.3082441,44.8169585 C26.7976935,45.7496152 26.9139703,45.971133 27.1675576,45.971133 C27.4556497,45.971133 27.551838,45.7662528 27.9566796,44.9060885 L34.2743828,31.4239229 L35.4730732,44.3801025 C35.5203402,44.8081643 35.489853,45.0907659 35.4518031,45.1670613 C35.2780969,45.2091306 35.189944,45.3127592 35.189944,45.4739063 C35.189944,45.7700557 35.5543724,45.8256728 36.0322415,45.8675045 C37.0135038,45.947365 39.7911472,46.0224719 40.326682,46.0224719 C40.9345352,46.0224719 41,45.7657774 41,45.6552562 C41,45.534277 40.9411526,45.3902429 40.6601505,45.3902429" id="Fill-10" fill="#81112C"></path>
                <path d="M54.3452169,42.0004973 C54.0487902,42.0004973 53.9977817,42.2694917 53.9674654,42.4305648 C53.9142914,42.7365343 53.6705574,43.5356603 53.2928059,43.9165046 C52.5009712,44.6955253 51.2503008,44.8029844 50.0169539,44.8029844 C45.706977,44.8029844 43.1315294,41.3929489 43.1315294,38.0956877 C43.1315294,36.5082972 43.3341197,34.6988246 44.8381484,33.3131799 C45.7928734,32.4232337 47.224239,31.990162 49.2140514,31.990162 C50.9634983,31.990162 52.4088191,32.5242221 53.0115374,33.020845 C53.4648392,33.3885169 53.7689653,34.1053731 53.7689653,34.8039728 C53.7689653,35.0179666 53.7689653,35.3763947 54.1099042,35.3763947 C54.4313539,35.3763947 54.4558957,35.0255927 54.4705727,34.8157586 C54.4789939,34.6930472 54.483806,34.4379185 54.4895806,34.1432726 C54.4970394,33.7388566 54.5066636,33.2359943 54.5292806,32.8764107 C54.5526194,32.4706081 54.583417,32.2284207 54.6038685,32.0671165 C54.617583,31.9603507 54.6274479,31.8833961 54.6274479,31.8126811 C54.6274479,31.5829728 54.4840466,31.4537908 54.1998908,31.4292948 C53.6000599,31.3930129 52.9884392,31.2848605 52.280576,31.1596071 L52.2245148,31.1499011 C51.0554098,30.9433023 49.8254315,30.9213483 49.3509563,30.9213483 C46.6905747,30.9213483 44.6940253,31.5963764 43.2472609,32.9854875 C41.5902067,34.5774998 41,36.7467871 41,38.2461305 C41,40.6386554 41.8178201,42.5565115 43.4308434,43.9458537 C45.0724987,45.3626961 47.1652905,46.0224719 50.0169539,46.0224719 C51.1942395,46.0224719 52.7576979,45.9050757 53.6171429,45.5753034 C54.0206393,45.4029066 54.0949866,45.3229478 54.228523,44.9176075 C54.4287072,44.2631469 54.6666667,42.6048103 54.6666667,42.4599138 C54.6666667,42.0226824 54.3988721,42.0004973 54.3452169,42.0004973" id="Fill-11" fill="#81112C"></path>
                <path d="M74.369464,45.4245694 C74.1820071,45.4245694 73.5156221,45.3685676 72.9324485,45.1170297 C71.813948,44.6433667 71.4078299,44.2595891 69.4565215,42.4152917 L69.3994292,42.3609369 C68.4783247,41.4924371 63.7976807,36.5767423 62.8936808,35.5748262 C63.6321824,34.7439747 67.5079867,30.889492 68.0830703,30.3273555 C68.2393229,30.1755857 68.3840184,30.0327573 68.5203927,29.8981646 C69.3275437,29.1016672 69.8150241,28.6209451 70.6355814,28.2538739 C71.0798381,28.0503377 71.5742528,27.9239805 71.92559,27.9239805 C72.0254438,27.9239805 72.291027,27.9239805 72.291027,27.6249116 C72.291027,27.3258427 71.9507846,27.3258427 71.805858,27.3258427 C71.3895696,27.3258427 70.4938908,27.3613733 69.9585639,27.3825505 C69.7170195,27.3919626 69.5422755,27.3992569 69.5055238,27.3992569 C69.2085051,27.3992569 68.8661825,27.3792563 68.5349547,27.3601968 C68.2296149,27.3425491 67.9409174,27.3258427 67.7086188,27.3258427 C67.3251527,27.3258427 67.2953352,27.5545563 67.2953352,27.6249116 C67.2953352,27.8188005 67.4795561,27.8940971 67.5923539,27.939981 C67.7060762,27.9835119 67.8223411,28.0639852 67.8223411,28.3322295 C67.8223411,28.6748293 67.2320021,29.2960266 66.6615414,29.8967527 L66.5616876,30.0019328 C66.102869,30.5078321 64.6358049,32.0408249 63.3411735,33.393341 C62.3248381,34.4554944 61.4280036,35.3924671 61.077591,35.7703622 L61.077591,34.5279674 C61.077591,30.7283101 61.077591,30.0438165 61.1252064,29.2663786 C61.1735153,28.406585 61.3642082,28.0973981 61.912248,27.9943358 C62.1893884,27.9472754 62.3289987,27.9239805 62.4852513,27.9239805 C62.669241,27.9239805 62.8028416,27.8084472 62.8028416,27.6496183 C62.8028416,27.3258427 62.4327818,27.3258427 62.2934027,27.3258427 C61.826494,27.3258427 61.0900727,27.3561967 60.5526654,27.3780797 C60.2678973,27.3898449 60.0432264,27.3992569 59.9694918,27.3992569 C59.9313533,27.3992569 59.8039935,27.393845 59.6169989,27.3865506 C59.0957716,27.3651381 58.125896,27.3258427 57.3337692,27.3258427 C57.1946212,27.3258427 56.8245614,27.3258427 56.8245614,27.6496183 C56.8245614,27.8084472 56.9579309,27.9239805 57.1416895,27.9239805 C57.3506427,27.9239805 57.7502888,27.9484519 57.9303491,27.9943358 C58.6036684,28.1397524 58.8126216,28.4251738 58.8613927,29.2670845 C58.9090082,30.0438165 58.9090082,30.7283101 58.9090082,34.5279674 L58.9090082,38.8203472 C58.9090082,41.1072477 58.9090082,43.0821377 58.7904319,44.0962894 C58.6875733,44.8551385 58.5671478,45.2539755 58.1931586,45.3297427 C58.0667234,45.3584496 57.745897,45.4245694 57.5013478,45.4245694 C57.2822244,45.4245694 57.1842198,45.5624564 57.1842198,45.6989316 C57.1842198,46.0224719 57.5538173,46.0224719 57.6929653,46.0224719 C58.169582,46.0224719 58.945991,45.9902355 59.4595906,45.9690583 C59.7265606,45.9579992 59.9288107,45.949293 59.9932996,45.949293 C60.0478493,45.949293 60.2006348,45.9554108 60.4179091,45.964117 C60.9761192,45.9857648 61.9101677,46.0224719 62.7487542,46.0224719 C63.1918552,46.0224719 63.257962,45.8198769 63.257962,45.6989316 C63.257962,45.5624564 63.1597263,45.4245694 62.9403717,45.4245694 C62.7711751,45.4245694 62.4713827,45.3932743 62.0225032,45.3280956 C61.4215316,45.2466811 61.2729067,44.8509031 61.1963984,44.0986425 C61.077591,43.0821377 61.077591,41.1072477 61.077591,38.8203472 L61.077591,36.6398032 C62.4004218,38.2542105 67.2424035,43.5725071 68.301038,44.4579487 L68.4665364,44.5913649 C69.4075192,45.3518611 70.0292936,45.854231 71.267295,45.9732938 C71.7998483,46.0224719 72.2501147,46.0224719 72.9319863,46.0224719 L74.1540388,46.0224719 C74.3659969,46.0224719 74.8070175,46.0224719 74.8070175,45.6989316 C74.8070175,45.5664566 74.6921395,45.4245694 74.369464,45.4245694" id="Fill-12" fill="#81112C"></path>
                <path d="M85.3282003,42.4517973 C85.0748271,42.4517973 85.0268606,42.7204331 84.9912874,42.9176182 C84.8306341,43.8680505 84.5607366,44.311601 83.9952371,44.5535587 C83.3996725,44.8082755 82.3730981,44.8082755 81.7598616,44.8082755 C79.4248811,44.8082755 79.1905568,44.4816442 79.125148,42.9570552 C79.1081646,42.5963224 79.1155088,41.0431996 79.1210169,39.9095012 C79.1233119,39.4636308 79.125148,39.0799318 79.125148,38.8500371 L79.125148,36.7341248 C79.125148,36.6937598 79.1297381,36.6921359 79.1666883,36.6921359 C79.5660264,36.6921359 81.9163838,36.7406203 82.5560133,36.8120709 C83.3888858,36.8981364 83.5942925,37.2398466 83.6860943,37.56555 C83.7758307,37.8592399 83.7758307,38.0840309 83.7758307,38.321349 C83.7758307,38.5299013 83.890583,38.6644511 84.0675311,38.6644511 C84.359461,38.6644511 84.359461,38.2851597 84.359461,38.0812471 C84.359461,37.9262828 84.4051325,37.0468372 84.454017,36.5534104 C84.4980819,36.0632314 84.5602776,35.7229131 84.601359,35.498122 C84.6275225,35.3554528 84.6447353,35.260804 84.6447353,35.1956169 C84.6447353,34.9072626 84.4742134,34.8766409 84.4010014,34.8766409 C84.2568725,34.8766409 84.1561199,34.9933281 83.9890405,35.1868015 L83.9509427,35.2308782 C83.7783552,35.4248156 83.5043266,35.4763157 82.9149586,35.5261919 C82.5151615,35.5612213 80.7043696,35.5737483 79.1428198,35.5737483 C79.1389182,35.5742123 79.1357052,35.5737483 79.1336396,35.5737483 C79.1299676,35.5598294 79.125148,35.5285118 79.125148,35.4600769 L79.125148,28.8225938 C79.125148,28.726785 79.1423608,28.7047466 79.1428198,28.7084584 C79.4257991,28.7084584 81.9946449,28.7332805 82.3884749,28.779677 C83.6220625,28.9184025 83.8313708,29.1865743 83.9761882,29.5210931 C84.0813014,29.7746499 84.1093009,30.1537093 84.1093009,30.3376714 C84.1093009,30.7197466 84.3069045,30.7765823 84.4246404,30.7765823 C84.5237864,30.7765823 84.6548336,30.7130191 84.7140458,30.4065702 C84.7459469,30.2149527 84.7767005,29.7108547 84.801028,29.3060453 C84.8143393,29.0854299 84.826044,28.8963642 84.8345357,28.8119226 C84.8758466,28.4208001 84.9327637,28.1665473 84.9738451,27.9804973 C85.0036807,27.8473393 85.0252541,27.7512986 85.0252541,27.6684808 C85.0252541,27.3701514 84.8870923,27.3258427 84.8049296,27.3258427 C84.7080786,27.3258427 84.6302766,27.3655117 84.5614252,27.400773 C84.5212618,27.4214195 84.4827051,27.441138 84.4418532,27.4494894 C84.2488398,27.4984377 83.8566163,27.5441382 83.4435079,27.5661766 C82.9050899,27.5896068 78.2009326,27.5900708 78.0070012,27.5900708 L77.0313768,27.5420504 C76.5051226,27.5176922 75.8714602,27.5176922 75.3128458,27.5176922 C75.1744545,27.5176922 74.8070175,27.5176922 74.8070175,27.8369001 C74.8070175,27.9934883 74.9396712,28.1073917 75.122357,28.1073917 C75.3298292,28.1073917 75.7261838,28.1315179 75.9051974,28.1767545 C76.573974,28.3201197 76.7812167,28.6015144 76.8296422,29.4315478 C76.8766907,30.197322 76.8766907,30.8721591 76.8766907,34.6182124 L76.8766907,38.8500371 C76.8766907,41.104675 76.8766907,43.0517041 76.7589548,44.0515486 C76.6570547,44.7996922 76.5377123,45.1929025 76.1656852,45.2676009 C75.9047384,45.3260605 75.6481522,45.3610898 75.4790072,45.3610898 C75.2614368,45.3610898 75.1638973,45.4970316 75.1638973,45.6315814 C75.1638973,45.9505573 75.5311048,45.9505573 75.6692666,45.9505573 C75.8384115,45.9505573 76.0477198,45.9401181 76.2694213,45.9292149 C76.5289911,45.9159919 76.7975116,45.902537 77.0552453,45.902537 C77.5160907,45.8802666 77.8956914,45.8784108 78.0008046,45.8784108 C78.3335863,45.8784108 78.8520374,45.8983613 79.8535958,45.9505573 L80.3814565,45.9649403 C81.2359024,45.9895304 82.4066058,46.0224719 83.8770422,46.0224719 C84.8097492,46.0224719 85.0913514,46.0224719 85.2836764,45.3003104 C85.4007237,44.8029399 85.5964912,43.159112 85.5964912,42.9387286 C85.5964912,42.7684534 85.5964912,42.4517973 85.3282003,42.4517973" id="Fill-13" fill="#81112C"></path>
                <path d="M108.038699,26.9516162 C107.367234,26.9516162 106.775678,26.9844388 106.384249,27.0058448 C106.184121,27.0170235 106.025737,27.0258238 105.936526,27.0258238 C105.847554,27.0258238 105.659592,27.0174992 105.407942,27.0067962 C104.892239,26.9849145 104.11272,26.9516162 103.365403,26.9516162 C103.131881,26.9516162 102.740929,26.9516162 102.740929,27.2539167 C102.740929,27.5036536 102.91935,27.5562172 103.068909,27.5562172 C103.234926,27.5562172 103.808831,27.5780989 104.247728,27.6751395 C104.919908,27.8482904 105.089981,28.2837838 105.114788,29.8949432 L105.379318,42.0856681 C104.954495,41.6344769 104.265618,40.8805095 103.431476,39.9676619 C102.332326,38.7651196 100.964828,37.2683636 99.6774774,35.8938596 C95.8433328,31.7977 92.178068,27.8475768 91.8109691,27.4334894 C91.7477584,27.3704606 91.6730983,27.2876907 91.593906,27.1996882 C91.2602014,26.8307912 91.044331,26.6067416 90.8537449,26.6067416 C90.5100219,26.6067416 90.4518204,27.0267751 90.4518204,27.9686397 L90.4272517,42.0963711 C90.4272517,44.3413863 90.2941515,44.9593066 89.7741543,45.1046296 C89.4595321,45.2092812 89.0535527,45.2459093 88.8014256,45.2459093 C88.5597938,45.2459093 88.4736842,45.3955135 88.4736842,45.5232361 C88.4736842,45.8502724 88.8157374,45.8502724 88.9996447,45.8502724 C89.7710534,45.8502724 90.5157467,45.8143579 90.9606067,45.7931897 C91.160734,45.7834381 91.3055223,45.7763027 91.373265,45.7763027 C91.4350445,45.7763027 91.5581264,45.7824867 91.7339236,45.7908113 C92.2007285,45.8131687 92.9821555,45.8502724 93.9940033,45.8502724 C94.1662225,45.8502724 94.5693396,45.8502724 94.5693396,45.5232361 C94.5693396,45.3955135 94.4834685,45.2459093 94.2413598,45.2459093 C94.1743326,45.2459093 93.5710881,45.2421038 93.0420267,45.1036782 C92.5043782,44.944798 92.2219577,44.4774334 92.1704351,42.3639463 L91.8586753,30.9086368 C92.9048715,32.0771674 95.4759953,34.9265457 98.0778897,37.7221711 C100.718187,40.5539489 104.27349,44.170376 104.534442,44.4072692 C105.909811,45.7786812 106.174819,46.0224719 106.431239,46.0224719 C106.744669,46.0224719 106.784265,45.8117416 106.784265,44.1434996 L106.833641,29.694678 C106.833641,28.2031545 106.934539,27.7776505 107.649655,27.6261435 C107.930883,27.5562172 108.093084,27.5562172 108.211634,27.5562172 C108.489761,27.5562172 108.614035,27.4042345 108.614035,27.2539167 C108.614035,26.9516162 108.23978,26.9516162 108.038699,26.9516162" id="Fill-14" fill="#81112C"></path>
                <path d="M129.617885,26.9516162 C128.946659,26.9516162 128.354864,26.9844388 127.963673,27.0058448 C127.763307,27.0170235 127.605161,27.0258238 127.515951,27.0258238 C127.426979,27.0258238 127.238778,27.0174992 126.987128,27.0067962 C126.471424,26.9849145 125.691667,26.9516162 124.94435,26.9516162 C124.71059,26.9516162 124.319638,26.9516162 124.319638,27.2539167 C124.319638,27.5036536 124.498059,27.5562172 124.647379,27.5562172 C124.813874,27.5562172 125.388256,27.5780989 125.827153,27.6751395 C126.499094,27.8482904 126.669405,28.2837838 126.693735,29.8949432 L126.958743,42.0856681 C126.533919,41.6344769 125.844565,40.8800338 125.010423,39.9671863 C123.911512,38.764644 122.543537,37.2678879 121.256663,35.8938596 C117.427289,31.8029325 113.760832,27.8516202 113.390394,27.4334894 C113.327183,27.3709363 113.252761,27.2881664 113.173808,27.2004017 C112.840103,26.8307912 112.623517,26.6067416 112.432931,26.6067416 C112.088969,26.6067416 112.030768,27.0267751 112.030768,27.9686397 L112.005722,42.0963711 C112.005722,44.3413863 111.873099,44.9593066 111.35334,45.1046296 C111.038957,45.2092812 110.632977,45.2459093 110.380373,45.2459093 C110.138503,45.2459093 110.052632,45.3955135 110.052632,45.5232361 C110.052632,45.8502724 110.394923,45.8502724 110.578831,45.8502724 C111.350239,45.8502724 112.095171,45.8143579 112.54027,45.7931897 C112.740158,45.7834381 112.884708,45.7763027 112.952451,45.7763027 C113.014469,45.7763027 113.137551,45.7824867 113.313587,45.7908113 C113.780391,45.8131687 114.561341,45.8502724 115.573428,45.8502724 C115.745408,45.8502724 116.148764,45.8502724 116.148764,45.5232361 C116.148764,45.3955135 116.062654,45.2459093 115.820546,45.2459093 C115.75328,45.2459093 115.150274,45.2421038 114.621213,45.1036782 C114.083564,44.944798 113.801382,44.4779091 113.749859,42.3639463 L113.437861,30.9086368 C114.483819,32.0771674 117.055181,34.9265457 119.657314,37.7221711 C122.291172,40.5465757 125.850052,44.1682354 126.11339,44.4072692 C127.488997,45.7786812 127.754482,46.0224719 128.010425,46.0224719 C128.336736,46.0224719 128.363212,45.7382476 128.363212,44.1434996 L128.412588,29.694678 C128.412588,28.2031545 128.513487,27.7776505 129.229079,27.6261435 C129.50983,27.5562172 129.67227,27.5562172 129.790819,27.5562172 C130.068469,27.5562172 130.192982,27.4042345 130.192982,27.2539167 C130.192982,26.9516162 129.818728,26.9516162 129.617885,26.9516162" id="Fill-15" fill="#81112C"></path>
                <path d="M141.982372,37.8418301 L137.429251,37.8418301 C137.429484,37.8411368 137.429952,37.8402125 137.430185,37.8392881 L139.560782,31.3719108 C139.584837,31.2995812 139.605856,31.2535953 139.621503,31.2251718 C139.63715,31.2538264 139.658403,31.3002745 139.682925,31.3739906 L141.97957,37.8312001 C141.980504,37.8351286 141.981438,37.838826 141.982372,37.8418301 Z M149.244573,45.4352848 C149.011499,45.4352848 148.661187,45.4117141 148.310875,45.2966338 C147.784239,45.147815 147.134994,44.724005 146.312462,42.7114853 C145.260124,40.1175556 143.03144,34.3579918 141.700021,30.9164422 C141.16381,29.5308562 140.776365,28.5297958 140.672439,28.2682075 C140.386351,27.5382099 140.266311,27.3258427 140.021559,27.3258427 C139.777509,27.3258427 139.663074,27.5423694 139.368578,28.3426169 L133.873117,43.218717 C133.409304,44.4949997 132.944791,45.259198 131.943366,45.3883745 C131.747658,45.4126385 131.414395,45.4352848 131.257455,45.4352848 C131.051004,45.4352848 130.912281,45.5436637 130.912281,45.70473 C130.912281,46.0224719 131.308834,46.0224719 131.499404,46.0224719 C132.268455,46.0224719 133.119947,45.9898889 133.683482,45.9686291 C133.95042,45.9582303 134.148696,45.9506045 134.234873,45.9506045 C134.339266,45.9506045 134.575376,45.9623898 134.848853,45.9760238 C135.261053,45.9968215 135.773677,46.0224719 136.123288,46.0224719 C136.528482,46.0224719 136.613725,45.8496203 136.613725,45.70473 C136.613725,45.6044391 136.565615,45.4352848 136.244262,45.4352848 L136.002547,45.4352848 C135.695907,45.4352848 135.209674,45.2813822 135.209674,44.8670467 C135.209674,44.4464719 135.327379,43.8911745 135.54177,43.3016765 L136.991828,39.0686606 C137.033865,38.9649034 137.076136,38.9563533 137.115838,38.9563533 L142.320774,38.9563533 C142.378225,38.9563533 142.390135,38.9607439 142.419562,39.0185151 L144.6709,44.9111839 C144.731387,45.0706326 144.739327,45.210439 144.693553,45.3056461 C144.672535,45.3495522 144.639372,45.3823663 144.614149,45.3909165 C144.38271,45.4482256 144.348146,45.5977376 144.348146,45.6811593 C144.348146,45.9325798 144.641006,45.9471382 145.084034,45.9686291 L145.198236,45.9746373 C146.276496,46.0053716 147.627533,46.0224719 149.002624,46.0224719 C149.408285,46.0224719 149.614035,45.9154795 149.614035,45.70473 C149.614035,45.5258701 149.489791,45.4352848 149.244573,45.4352848 L149.244573,45.4352848 Z" id="Fill-16" fill="#81112C"></path>
                <path d="M31.4610975,61.1756609 C31.2842697,61.1756609 31.2537098,61.3441491 31.2334142,61.4567862 C31.1963224,61.6799571 31.0248601,62.2641742 30.7596184,62.5427289 C30.2055736,63.1117563 29.3356648,63.1902751 28.4783534,63.1902751 C25.4876776,63.1902751 23.7007372,60.7223085 23.7007372,58.3365996 C23.7007372,57.1887299 23.8414063,55.8798499 24.8869764,54.876165 C25.5501972,54.2297872 26.5439787,53.9159458 27.9252416,53.9159458 C29.1397079,53.9159458 30.1439871,54.3033985 30.5636615,54.6635099 C30.8827913,54.9345867 31.0971775,55.4599147 31.0971775,55.9702867 C31.0971775,56.1212484 31.0971775,56.3486257 31.2989665,56.3486257 C31.4890913,56.3486257 31.5042547,56.1249874 31.5145191,55.9765963 C31.5198846,55.8917679 31.5233838,55.7132312 31.5273496,55.5015109 C31.5324818,55.2084676 31.5390137,54.8432151 31.5546436,54.5835891 C31.5709733,54.2900784 31.592202,54.1152806 31.6061989,54.0003067 C31.6159968,53.9203858 31.6220621,53.8666378 31.6220621,53.82177 C31.6220621,53.6250057 31.4732282,53.5890179 31.3586867,53.578502 C30.9453109,53.5530301 30.5249367,53.4754461 30.0383103,53.3854767 L29.9935202,53.377765 C29.1914965,53.2293739 28.3460824,53.2134831 28.0197209,53.2134831 C26.1959219,53.2134831 24.827956,53.6953454 23.8374405,54.6871123 C22.7027567,55.8244661 22.2982456,57.3735762 22.2982456,58.4447966 C22.2982456,60.1542158 22.8583558,61.5238543 23.9624797,62.5160886 C25.0866658,63.52842 26.5218169,64 28.4783534,64 C29.286209,64 30.3579067,63.9163401 30.946244,63.6819522 C31.2145184,63.5618372 31.2595418,63.5111271 31.3488888,63.2295345 C31.4860587,62.7612261 31.6491228,61.5759665 31.6491228,61.4719758 C31.6491228,61.1971601 31.5049545,61.1756609 31.4610975,61.1756609" id="Fill-17" fill="#81112C"></path>
                <path d="M51.0281651,58.7553664 C51.0281651,63.0792739 48.0089662,63.2984721 47.4037291,63.2984721 C44.9208368,63.2984721 43.1868641,61.2081434 43.1868641,58.2143814 C43.1868641,55.5293197 44.658156,53.8614967 47.0267077,53.8614967 C48.953965,53.8614967 51.0281651,55.3928466 51.0281651,58.7553664 Z M47.1210213,53.2134831 C43.1859327,53.2134831 41.7192982,56.5133749 41.7192982,58.5931877 C41.7192982,61.1971601 43.3845734,64 47.0399815,64 C50.2089178,64 52.5087719,61.6353229 52.5087719,58.3767937 C52.5087719,55.2883885 50.3435184,53.2134831 47.1210213,53.2134831 L47.1210213,53.2134831 Z" id="Fill-18" fill="#81112C"></path>
                <path d="M68.8809644,61.8241686 C68.7022016,61.8241686 68.6781682,62.0253709 68.6708437,62.0878546 C68.6303303,62.3582956 68.4968877,62.6835002 68.3467361,62.8781887 C68.0665752,63.2347558 67.5584404,63.2617758 66.8152359,63.2617758 C65.7682949,63.2617758 65.4721118,63.1590034 65.2915179,62.9691399 C65.0697239,62.7353689 65.0273793,61.6897925 65.0273793,59.8418196 L65.0273793,57.3581536 C65.0273793,55.1844935 65.0273793,54.7929452 65.0537016,54.3485631 C65.0800239,53.8646162 65.1830242,53.7003251 65.4933985,53.6436314 C65.6428634,53.6173352 65.8220839,53.6031015 65.915242,53.6031015 C66.0280846,53.6031015 66.1132315,53.5254191 66.1132315,53.4221642 C66.1132315,53.2134831 65.8843419,53.2134831 65.8090372,53.2134831 C65.5252141,53.2134831 64.9614591,53.2342306 64.6243047,53.2465344 C64.4915488,53.2516006 64.3981618,53.2554606 64.379164,53.2554606 C64.3631417,53.2554606 64.2995104,53.2525656 64.2045212,53.2489469 C63.9211559,53.2376081 63.3315363,53.2134831 62.8829127,53.2134831 C62.807837,53.2134831 62.5789474,53.2134831 62.5789474,53.4221642 C62.5789474,53.5254191 62.6640943,53.6031015 62.7769369,53.6031015 C62.8916105,53.6031015 63.1097423,53.6168527 63.2077071,53.6431489 C63.5714126,53.7242088 63.6780752,53.8759549 63.7043975,54.3490456 C63.7304909,54.7929452 63.7304909,55.1844935 63.7304909,57.3581536 L63.7304909,59.8135934 C63.7304909,61.1211669 63.7304909,62.2504569 63.6654862,62.83018 C63.6103239,63.2526083 63.5469214,63.4745581 63.353052,63.5155705 C63.2832406,63.5317343 63.1069956,63.5688867 62.975613,63.5688867 C62.8389659,63.5688867 62.7773946,63.6598379 62.7773946,63.749824 C62.7773946,63.958505 63.0062842,63.958505 63.08136,63.958505 C63.2461605,63.958505 63.4947346,63.9495788 63.8362379,63.9307613 C64.0207229,63.9307613 64.1857523,63.9237651 64.2882948,63.9199051 C64.3317838,63.9174926 64.3633706,63.9160451 64.379164,63.9160451 C64.7403517,63.9160451 65.1303796,63.9283488 65.7275525,63.958505 L66.1166648,63.9693613 C66.5920685,63.9831125 67.183977,64 67.9276393,64 C68.6250658,64 68.7372217,63.9459601 68.850751,63.5524817 C68.9594735,63.1358435 69.0526316,62.2849556 69.0526316,62.1307971 C69.0526316,62.0162034 69.0526316,61.8241686 68.8809644,61.8241686" id="Fill-19" fill="#81112C"></path>
                <path d="M86.1439116,61.8241686 C85.9647101,61.8241686 85.941137,62.0253709 85.9338133,62.0878546 C85.8928464,62.3587781 85.7589602,62.6839827 85.6092823,62.8781887 C85.3286934,63.2347558 84.8208413,63.2617758 84.0781733,63.2617758 C83.0311145,63.2617758 82.7351917,63.1590034 82.5548458,62.9691399 C82.3321599,62.7344039 82.2900486,61.68931 82.2900486,59.8418196 L82.2900486,57.3581536 C82.2900486,55.1844935 82.2900486,54.7929452 82.3168259,54.3485631 C82.3431454,53.8646162 82.4463636,53.7003251 82.7564761,53.6436314 C82.9052386,53.6173352 83.0848979,53.6031015 83.178046,53.6031015 C83.2911055,53.6031015 83.3762434,53.5254191 83.3762434,53.4221642 C83.3762434,53.2134831 83.1469204,53.2134831 83.0718525,53.2134831 C82.7885173,53.2134831 82.224822,53.2342306 81.8877034,53.2465344 C81.7545038,53.2516006 81.6611268,53.2554606 81.6423598,53.2554606 C81.6261104,53.2554606 81.5627147,53.2525656 81.4679644,53.2489469 C81.1846292,53.2376081 80.5948433,53.2134831 80.1460384,53.2134831 C80.0709706,53.2134831 79.8421053,53.2134831 79.8421053,53.4221642 C79.8421053,53.5254191 79.9272432,53.6031015 80.0400738,53.6031015 C80.1547353,53.6031015 80.3730728,53.6168527 80.471256,53.6431489 C80.8346941,53.7242088 80.9413454,53.8759549 80.9676649,54.3490456 C80.9939844,54.7929452 80.9939844,55.1844935 80.9939844,57.3581536 L80.9939844,59.8135934 C80.9939844,61.1211669 80.9939844,62.2504569 80.9285289,62.83018 C80.8736012,63.2526083 80.8102055,63.4745581 80.6165855,63.5155705 C80.5465527,63.5317343 80.3696398,63.5688867 80.2385,63.5688867 C80.1018674,63.5688867 80.0407604,63.6598379 80.0407604,63.749824 C80.0407604,63.958505 80.2698545,63.958505 80.3449224,63.958505 C80.5094765,63.958505 80.7580242,63.9495788 81.0992624,63.9307613 C81.2839567,63.9307613 81.4491975,63.9237651 81.5512714,63.9199051 C81.5949847,63.9174926 81.6265681,63.9160451 81.6423598,63.9160451 C82.0035093,63.9160451 82.3932669,63.9283488 82.9903765,63.958505 L83.3789898,63.9693613 C83.8545719,63.9831125 84.4464176,64 85.1902299,64 C85.8878113,64 85.9997265,63.9459601 86.1139303,63.5524817 C86.2226413,63.1348785 86.3157895,62.2844731 86.3157895,62.1307971 C86.3157895,62.0162034 86.3157895,61.8241686 86.1439116,61.8241686" id="Fill-20" fill="#81112C"></path>
                <path d="M103.395741,61.901388 C103.224292,61.901388 103.191962,62.0740239 103.170163,62.189592 C103.075621,62.7330487 102.924011,62.9739748 102.591889,63.1110328 C102.241642,63.2552542 101.633732,63.2552542 101.270504,63.2552542 C99.8910709,63.2552542 99.7632186,63.0845286 99.7245201,62.2144248 C99.7149679,62.0081214 99.7191316,61.1160501 99.7225606,60.464905 C99.7237853,60.2089359 99.7250099,59.9883059 99.7250099,59.8565009 L99.7252548,58.6411255 C99.9638144,58.6411255 101.364066,58.6685848 101.741745,58.709177 C102.221558,58.7571711 102.339123,58.9372091 102.394232,59.1256042 C102.446647,59.2910768 102.446647,59.4185837 102.446647,59.553254 C102.446647,59.6848202 102.526248,59.7734065 102.644793,59.7734065 C102.84196,59.7734065 102.84196,59.5401213 102.84196,59.4147633 C102.84196,59.3271321 102.869392,58.82379 102.898293,58.539884 C102.924501,58.2600372 102.961485,58.0656727 102.985488,57.9369718 C103.002143,57.8500569 103.012185,57.797526 103.012185,57.7574114 C103.012185,57.566151 102.882618,57.551108 102.84294,57.551108 C102.745213,57.551108 102.678593,57.6253677 102.578173,57.7383092 L102.556619,57.7619482 C102.459873,57.8674877 102.30018,57.8963797 101.955567,57.9243166 C101.720191,57.9438963 100.654266,57.9503433 99.7264795,57.9508209 C99.7254998,57.9415086 99.7250099,57.9283758 99.7250099,57.9092737 L99.7250099,54.0969584 C99.7250099,54.0769012 99.7264795,54.0637684 99.728194,54.0549337 C99.961855,54.0558888 101.418195,54.0697378 101.641814,54.0960033 C102.419705,54.1798141 102.494897,54.3471968 102.567151,54.5066999 C102.628383,54.6504438 102.644793,54.8639105 102.644793,54.9670622 C102.644793,55.207272 102.777789,55.2430885 102.857145,55.2430885 C102.955116,55.2430885 103.020757,55.1662023 103.053333,55.0105196 C103.071947,54.9009209 103.089582,54.626566 103.105012,54.3851624 C103.11334,54.2550289 103.120443,54.1430424 103.125831,54.093138 C103.149834,53.8691651 103.183634,53.7232723 103.208127,53.6170165 C103.226007,53.5396527 103.238743,53.4840176 103.238743,53.4336356 C103.238743,53.2349731 103.13024,53.2134831 103.083459,53.2134831 C103.020267,53.2134831 102.969077,53.2387935 102.928174,53.2588508 C102.905151,53.2700733 102.883598,53.2808183 102.861064,53.2853551 C102.747173,53.3128144 102.515226,53.3390799 102.271033,53.3510188 C101.951648,53.3651066 99.1501646,53.3655842 99.0357833,53.3655842 L98.4545699,53.3381248 C98.1413074,53.3240369 97.7633839,53.3240369 97.4302822,53.3240369 C97.3499459,53.3240369 97.1052632,53.3240369 97.1052632,53.5305791 C97.1052632,53.6327757 97.1963763,53.709662 97.3171256,53.709662 C97.4395895,53.709662 97.6732505,53.7232723 97.7783245,53.749299 C98.1670248,53.8295281 98.2811611,53.9797189 98.3093278,54.4479608 C98.3379843,54.8873106 98.3379843,55.2748459 98.3379843,57.4262276 L98.3379843,59.8565009 C98.3379843,61.1506728 98.3379843,62.2683884 98.2674451,62.8421698 C98.210132,63.2509562 98.1405726,63.4799435 97.9340985,63.5205356 C97.7751404,63.5542031 97.627694,63.5733053 97.5297229,63.5733053 C97.3830112,63.5733053 97.3176155,63.6633243 97.3176155,63.7523881 C97.3176155,63.9589303 97.5622983,63.9589303 97.6428795,63.9589303 C97.7430549,63.9589303 97.8674782,63.9529609 98.0014536,63.9465139 C98.1523291,63.9393506 98.3144712,63.931471 98.4695105,63.9309934 C98.7433397,63.9183382 98.9684282,63.9169056 99.0311297,63.9169056 C99.2542589,63.9169056 99.6324272,63.9338587 100.134039,63.9589303 L100.448281,63.9672875 C100.957731,63.9808978 101.655285,64 102.531147,64 C103.085663,64 103.272788,64 103.392068,63.5673359 C103.462362,63.2791319 103.578947,62.3319032 103.578947,62.2055901 C103.578947,62.1064976 103.578947,61.901388 103.395741,61.901388" id="Fill-21" fill="#81112C"></path>
                <path d="M124.133078,58.5529936 C123.848891,58.5529936 123.349557,58.573558 123.051378,58.5859434 C122.934401,58.5903835 122.852287,58.5941225 122.833479,58.5941225 C122.817194,58.5941225 122.753429,58.5913182 122.658242,58.5878129 C122.374055,58.5763623 121.783202,58.5529936 121.33387,58.5529936 C121.258408,58.5529936 121.02904,58.5529936 121.02904,58.7553664 C121.02904,58.8551507 121.114595,58.9308652 121.227902,58.9308652 C121.341669,58.9308652 121.559339,58.9441854 121.653839,58.9680214 C122.116933,59.0974839 122.18322,59.1874534 122.18322,60.2696571 L122.18322,62.5677334 C122.18322,62.7553839 122.116474,62.8752653 121.964174,62.9589252 C121.646728,63.1456409 120.981561,63.2304693 120.497824,63.2304693 C119.182398,63.2304693 118.034411,62.7525797 117.085744,61.8105881 C116.608888,61.3385407 115.707013,59.9625926 115.707013,58.1335257 C115.707013,56.6771894 116.185016,55.42159 116.98574,54.7738101 C117.938764,54.007551 118.885825,53.9016909 119.767975,53.9016909 C121.390524,53.9016909 122.481858,54.4475833 122.80779,54.9528142 C123.030047,55.3143278 123.067205,55.7232797 123.073168,55.8050701 C123.085096,55.9191093 123.103216,56.0915702 123.258039,56.0915702 C123.469516,56.0915702 123.469516,55.8550791 123.469516,55.7141659 C123.469516,54.7350181 123.518601,54.2676445 123.544749,54.0166648 C123.555529,53.9166468 123.56241,53.8481766 123.56241,53.7944286 C123.56241,53.7231541 123.530758,53.6004685 123.314464,53.578502 C122.964219,53.5640134 122.51007,53.5069938 122.255013,53.4453005 C122.210974,53.4357193 121.164138,53.2134831 120.206068,53.2134831 C119.175746,53.2134831 117.837842,53.3116316 116.627238,54.0797602 C115.212725,54.9866988 114.368421,56.6785915 114.368421,58.6065079 C114.368421,60.4495959 115.235662,61.8720477 115.978355,62.5308109 C117.073588,63.5057523 118.563334,64 120.405159,64 C121.23249,64 122.417176,63.8375877 123.264003,63.3793278 C123.475021,63.2540716 123.483049,63.1720475 123.483049,62.5677334 L123.483049,61.0536764 C123.483049,60.4900238 123.483049,60.0829413 123.509197,59.6524902 C123.534428,59.1902576 123.635579,59.0241063 123.922518,58.9696572 L123.944079,58.9661519 C124.086517,58.9427832 124.158079,58.9308652 124.239505,58.9308652 C124.352813,58.9308652 124.438596,58.8551507 124.438596,58.7553664 C124.438596,58.5529936 124.20854,58.5529936 124.133078,58.5529936" id="Fill-22" fill="#81112C"></path>
                <path d="M141.517597,61.901388 C141.346908,61.901388 141.314337,62.0740239 141.292787,62.189592 C141.198014,62.7330487 141.046917,62.9739748 140.714355,63.1110328 C140.364407,63.2552542 139.756098,63.2552542 139.392436,63.2552542 C138.014191,63.2552542 137.886603,63.0845286 137.847421,62.2144248 C137.83787,62.0081214 137.842033,61.1160501 137.845217,60.464905 C137.846686,60.2089359 137.847665,59.9883059 137.847665,59.8565009 L137.849135,58.6411255 C138.087658,58.6411255 139.487698,58.6685848 139.863605,58.709177 C140.343836,58.7571711 140.461628,58.9372091 140.517218,59.1256042 C140.569625,59.2910768 140.569625,59.4185837 140.569625,59.553254 C140.569625,59.687208 140.64701,59.7734065 140.767252,59.7734065 C140.964634,59.7734065 140.964634,59.5401213 140.964634,59.4147633 C140.964634,59.3247443 140.992306,58.8197307 141.021203,58.539884 C141.047407,58.2600372 141.084385,58.0656727 141.108384,57.9369718 C141.125037,57.8500569 141.134833,57.797526 141.134833,57.7574114 C141.134833,57.5608979 140.993776,57.551108 140.965613,57.551108 C140.867902,57.551108 140.800067,57.6268003 140.698193,57.7409358 L140.679336,57.7619482 C140.582359,57.8674877 140.422691,57.8963797 140.078619,57.9243166 C139.846463,57.9438963 138.81131,57.9508209 137.891501,57.9508209 C137.877297,57.9508209 137.863094,57.9508209 137.849135,57.9508209 C137.848155,57.9415086 137.847665,57.9283758 137.847665,57.9092737 L137.847665,54.0969584 C137.847665,54.0769012 137.849135,54.0632909 137.850604,54.0549337 C138.082516,54.0558888 139.540839,54.0697378 139.76418,54.0960033 C140.542442,54.1802916 140.617868,54.3471968 140.690111,54.5066999 C140.751089,54.6513989 140.767497,54.864388 140.767497,54.9670622 C140.767497,55.207272 140.900717,55.2430885 140.980062,55.2430885 C141.048141,55.2430885 141.137281,55.202974 141.175729,55.0114747 C141.195565,54.8975781 141.213932,54.6010169 141.229115,54.3627173 C141.236952,54.2423737 141.243074,54.1396995 141.247727,54.093138 C141.271971,53.8696426 141.305766,53.7242274 141.330255,53.6179716 C141.348377,53.5401302 141.361111,53.4840176 141.361111,53.4336356 C141.361111,53.2349731 141.252625,53.2134831 141.205851,53.2134831 C141.143159,53.2134831 141.091977,53.2387935 141.05059,53.2588508 C141.027326,53.2700733 141.005775,53.2808183 140.983,53.2853551 C140.869616,53.313292 140.637705,53.3390799 140.394038,53.3510188 C140.074211,53.3651066 137.273642,53.3655842 137.159278,53.3655842 L136.577663,53.3381248 C136.264447,53.3240369 135.886826,53.3240369 135.553775,53.3240369 C135.472961,53.3240369 135.22807,53.3240369 135.22807,53.5305791 C135.22807,53.6327757 135.319169,53.709662 135.44088,53.709662 C135.563325,53.709662 135.796951,53.7232723 135.901764,53.749299 C136.290161,53.8295281 136.40428,53.9797189 136.432687,54.4479608 C136.461095,54.8873106 136.461095,55.2748459 136.461095,57.4262276 L136.461095,59.8565009 C136.461095,61.1506728 136.461095,62.2683884 136.390811,62.8421698 C136.331792,63.2602685 136.264202,63.4799435 136.057025,63.5205356 C135.982333,63.5365336 135.793768,63.5733053 135.652711,63.5733053 C135.506266,63.5733053 135.44088,63.6633243 135.44088,63.7523881 C135.44088,63.9589303 135.686016,63.9589303 135.766585,63.9589303 C135.86601,63.9589303 135.990905,63.9529609 136.12437,63.9465139 C136.274978,63.9393506 136.437585,63.931471 136.592846,63.9309934 C136.866633,63.9183382 137.091933,63.9169056 137.154625,63.9169056 C137.377475,63.9169056 137.755342,63.9338587 138.256633,63.9589303 L138.572052,63.9672875 C139.08118,63.9808978 139.778138,64 140.653867,64 C141.207565,64 141.394417,64 141.514413,63.5673359 C141.584452,63.280087 141.701754,62.3323807 141.701754,62.2055901 C141.701754,62.1064976 141.701754,61.901388 141.517597,61.901388" id="Fill-23" fill="#81112C"></path>
            </g>
        </g>
    </g>
</svg>